Coordinates
version=1
nRows=12
nColumns=32
inDegrees=yes

Units are S.I. units (second, meters, Newtons, ...)
If the header above contains a line with 'inDegrees', this indicates whether rotational values are in degrees (yes) or radians (no).

endheader
time	pelvis_tilt	pelvis_list	pelvis_rotation	pelvis_tx	pelvis_ty	pelvis_tz	hip_flexion_r	hip_adduction_r	hip_rotation_r	knee_angle_r	knee_adduction_r	med_cond_adduction_r	lat_cond_adduction_r	patella_r_constrained_knee_angle	ankle_angle_r	subtalar_angle_r	mtp_angle_r	hip_flexion_l	hip_adduction_l	hip_rotation_l	knee_angle_l	knee_adduction_l	med_cond_adduction_l	lat_cond_adduction_l	patella_l_constrained_knee_angle	ankle_angle_l	subtalar_angle_l	mtp_angle_l	lumbar_extension	lumbar_bending	lumbar_rotation
      1.32500000	     -4.43596725	     -2.96055746	     -3.26878572	      0.14808039	      0.46261227	     -1.19908435	     93.27472321	    -45.71695362	      5.71999189	   -118.80456148	     -9.81387973	     -0.00000000	     -0.00000000	     -2.07353076	     29.03037118	     19.12590604	      0.00000000	    101.61001452	    -49.36478421	     15.01959841	   -119.86743070	     -9.78328476	      0.00000000	      0.00000000	     -2.09208133	     28.77974851	     19.61980908	      0.00000000	    -35.09361970	      3.04742248	      0.03809744
      1.33000000	     -4.16889173	     -2.82684728	     -3.29625517	      0.14792671	      0.46198423	     -1.19881272	     93.38229590	    -45.69886376	      6.07369674	   -118.96139975	     -9.81625302	      0.00000000	      0.00000000	     -2.07626811	     29.04121141	     19.13129089	      0.00000000	    101.21918751	    -49.40408258	     14.91155303	   -119.87621515	     -9.78412038	     -0.00000000	     -0.00000000	     -2.09223465	     28.82188835	     19.62060176	     -0.00000000	    -35.49742992	      2.89851418	      0.14214329
      1.33500000	     -3.85352028	     -3.04534456	     -3.33202983	      0.14785418	      0.46161372	     -1.19884041	     92.88852542	    -45.71472694	      5.77406267	   -119.05090416	     -9.82028708	      0.00000000	      0.00000000	     -2.07783025	     29.07710677	     19.12285287	      0.00000000	    101.23253989	    -49.41979585	     15.40046224	   -119.88417564	     -9.78542041	      0.00000000	      0.00000000	     -2.09237359	     28.86966295	     19.62450593	     -0.00000000	    -36.00068231	      3.38272498	      0.75301308
      1.34000000	     -3.58181926	     -2.95323720	     -3.33140025	      0.14776053	      0.46107826	     -1.19868959	     92.90715815	    -45.75484941	      6.03854439	   -119.17471524	     -9.82259848	     -0.00000000	     -0.00000000	     -2.07999117	     29.09373600	     19.12802317	      0.00000000	    100.87337114	    -49.42966217	     15.33874944	   -119.89093465	     -9.78545518	     -0.00000000	     -0.00000000	     -2.09249155	     28.91475245	     19.62555080	     -0.00000000	    -36.38889586	      3.04226149	      0.38411271
      1.34500000	     -3.30744182	     -3.01869305	     -3.34450546	      0.14767234	      0.46063874	     -1.19865937	     92.66849098	    -45.77942908	      6.02190742	   -119.27092100	     -9.82543213	     -0.00000000	     -0.00000000	     -2.08167027	     29.11251885	     19.12904490	      0.00000000	    100.72622132	    -49.43928554	     15.54689619	   -119.89711515	     -9.78577759	      0.00000000	      0.00000000	     -2.09259942	     28.94714672	     19.62683352	     -0.00000000	    -36.81164092	      3.04325807	      0.36606029
      1.35000000	     -3.01935094	     -3.01637349	     -3.35234249	      0.14755650	      0.46020550	     -1.19857458	     92.53037340	    -45.80762117	      6.11909351	   -119.36245609	     -9.82715784	     -0.00000000	     -0.00000000	     -2.08326786	     29.13266921	     19.13014725	     -0.00000000	    100.45997421	    -49.44908972	     15.63439963	   -119.90217312	     -9.78802807	      0.00000000	      0.00000000	     -2.09268770	     28.98752666	     19.62644038	     -0.00000000	    -37.22108754	      3.01711302	      0.42165139
      1.35500000	     -2.72487695	     -2.96936349	     -3.35671017	      0.14745026	      0.45985065	     -1.19847704	     92.43391115	    -45.84348354	      6.28842314	   -119.44931486	     -9.82919057	     -0.00000000	     -0.00000000	     -2.08478383	     29.14716370	     19.13297009	     -0.00000000	    100.11724337	    -49.46991064	     15.62136532	   -119.90636890	     -9.78911937	      0.00000000	      0.00000000	     -2.09276093	     29.02744004	     19.62714730	     -0.00000000	    -37.65750588	      3.13110462	      0.74429401
      1.36000000	     -2.45547836	     -2.93092383	     -3.36586468	      0.14732841	      0.45947309	     -1.19840478	     92.32885056	    -45.86338546	      6.44226667	   -119.51014209	     -9.83136579	     -0.00000000	     -0.00000000	     -2.08584547	     29.16358788	     19.13597124	     -0.00000000	     99.80875134	    -49.48464600	     15.63093785	   -119.91024659	     -9.78987317	      0.00000000	      0.00000000	     -2.09282861	     29.06166887	     19.62736690	      0.00000000	    -38.04644467	      3.05379941	      0.73381959
      1.36500000	     -2.17152667	     -2.87371565	     -3.36160640	      0.14722614	      0.45920445	     -1.19834473	     92.22607915	    -45.90134652	      6.62464335	   -119.57220200	     -9.83285108	     -0.00000000	     -0.00000000	     -2.08692862	     29.17575824	     19.14136697	      0.00000000	     99.43838830	    -49.49953327	     15.57234634	   -119.91360344	     -9.79068425	     -0.00000000	     -0.00000000	     -2.09288720	     29.09569501	     19.62714475	      0.00000000	    -38.46402897	      2.98164724	      0.75580904
      1.37000000	     -1.90015663	     -2.68044862	     -3.38703192	      0.14701603	      0.45890873	     -1.19813278	     92.31333061	    -45.87559748	      7.03034186	   -119.62389692	     -9.83415604	     -0.00000000	     -0.00000000	     -2.08783087	     29.18823621	     19.14818968	     -0.00000000	     98.89852087	    -49.52746404	     15.28586435	   -119.91623312	     -9.79224758	     -0.00000000	      0.00000000	     -2.09293309	     29.13202818	     19.62598972	     -0.00000000	    -38.83522522	      2.61392698	      0.48817071
      1.37500000	     -1.59026731	     -2.94914669	     -3.36119602	      0.14704318	      0.45878342	     -1.19837672	     91.71419871	    -45.99176462	      6.62584450	   -119.65015411	     -9.83682300	     -0.00000000	     -0.00000000	     -2.08828914	     29.20840318	     19.14633338	      0.00000000	     98.95814416	    -49.51300348	     15.80215481	   -119.91958474	     -9.79264453	      0.00000000	      0.00000000	     -2.09299159	     29.14899317	     19.62865417	      0.00000000	    -39.28688506	      2.91610483	      0.60022767
      1.38000000	     -1.34916357	     -2.65164738	     -3.36654100	      0.14686203	      0.45849079	     -1.19814714	     91.97004424	    -45.99334818	      7.21477753	   -119.69210658	     -9.83757637	     -0.00000000	     -0.00000000	     -2.08902135	     29.21275958	     19.15010104	      0.00000000	     98.28533729	    -49.53515679	     15.30414724	   -119.92149823	     -9.79444148	      0.00000000	      0.00000000	     -2.09302499	     29.18734394	     19.62589312	      0.00000000	    -39.60226922	      2.36888657	      0.13972183
